<?xml version="1.0" encoding="utf-8"?>
<!-- Generator: Adobe Illustrator 19.0.0, SVG Export Plug-In . SVG Version: 6.00 Build 0)  -->
<svg version="1.1" id="Layer_1" xmlns="http://www.w3.org/2000/svg" xmlns:xlink="http://www.w3.org/1999/xlink" x="0px" y="0px"
	 viewBox="60 -54.2 599.2 307.3" style="enable-background:new 60 -54.2 599.2 307.3;" xml:space="preserve">
<style type="text/css">
	.st0{fill:none;}
	.st1{opacity:0.6;}
</style>
<rect x="108.1" y="96.4" class="st0" width="599.2" height="420.9"/>
<g class="st1">
	<g>
		<g>
			<path d="M576.9,216c6.9-14.4,10.6-33.3,7.8-49.8c-11,12.6-18.4,24.5-19.9,34.3s-6.1,23.5-13.3,29.2c15,2.4,45.6,1.3,61.4-11
				c11.4-8.8,22.3-17.7,21.9-30.3c-5.8,5.5-11.1,10.1-22.2,13.9c-4.5,1.5-15.5,6.5-21.2,9.7C585.7,215.3,580.2,216.4,576.9,216z"/>
			<path d="M607.5,180.8c3.3-17,4.3-26.8-1.6-49.2c-4.9,10.1-12.8,18.8-11.3,53.1c-0.1,4.8,0,11.1-0.3,17.2
				c14-5.4,37.9-14.4,48.7-33.3c10.9-18.9,8.6-23.8,7.4-32.9c-5.8,7.7-9.3,13.1-15.2,17.8c-12.9,10.2-18.6,19.3-24.5,29
				C609.4,184.7,606.8,183.8,607.5,180.8z"/>
			<path d="M621.5,153.5c-3.4-14.4-4.6-21.8-9.2-30.6c-4.6-8.8-7.6-26.6-3-38.3c9.4,14.3,16.3,27,16.2,47.6c0.4,2.1,1.5,2.1,2.2,0.2
				s8.6-24.5,16.3-32.7c6.2-6.5,12.1-15.1,12.6-17.8c1,17.5,0.5,25.9-5.9,36.9s-12,16.7-16,20.1
				C630.5,142.4,626.2,146.7,621.5,153.5z"/>
			<path d="M649.1,27.4c11.8,38-1.6,54.3-5.9,59.7c-4.2,5.3-8.2,10-12.7,19.8c-1.1-5.2-11-22-15.6-28.6s-12-21.8-12.1-30
				c8.9,5.3,23.3,13.6,29.5,35.7c3-6.4,2.9-9.2,3.4-15.2c0.5-5.9,5.7-21.1,8.4-25.9C646.8,38.1,648.9,33.5,649.1,27.4z"/>
			<path d="M585.3,14c4,11.1,17.5,21.3,24.3,25.3c6.9,4,17.1,14,20.8,19.2c2-6.2,17.9-41.9-14.8-76c-0.1,11.3,1.7,31.7,8.9,49
				c0.5,2.5,0.9,7.4-0.9,9.3C616,27.4,605.1,15.8,585.3,14z"/>
			<path d="M581-42.7c17.7,9.4,29.4,28.9,29.9,58c-6.3-4.1-12.8-6.5-20.1-8.3S565.3-1.4,558-16.2c7.2,1.2,33,9.3,40.7,17.3
				c0.5-7.3-3.4-17.3-6-20.4C590.1-22.4,581.1-36.9,581-42.7z"/>
			<path d="M545.1-43.8c3,7.6,11.3,14.6,17.4,18.4c6.1,3.8,20.7,9.8,25.4,11.7c-4.4-7.3-11.1-16.1-17.6-20.5
				C563.8-38.7,555.3-41.1,545.1-43.8z"/>
			<g>
				<line x1="568.4" y1="220.2" x2="544" y2="238.1"/>
				<path d="M565.6,216.4l-24.3,17.9c-2.1,1.5-2.5,4.4-1,6.5s4.4,2.5,6.5,1l24.3-17.9c2.1-1.5,2.5-4.4,1-6.5
					C570.6,215.4,567.7,214.9,565.6,216.4z"/>
			</g>
		</g>
		<g>
			<path d="M142.4,216c-6.9-14.4-10.6-33.3-7.8-49.8c11,12.6,18.4,24.5,19.9,34.3s6.1,23.5,13.3,29.2c-15,2.4-45.6,1.3-61.4-11
				C95,209.9,84.1,201,84.5,188.4c5.8,5.5,11.1,10.1,22.2,13.9c4.5,1.5,15.5,6.5,21.2,9.7C133.5,215.3,139,216.4,142.4,216z"/>
			<path d="M111.8,180.8c-3.2-17-4.3-26.8,1.6-49.2c4.9,10.1,12.8,18.8,11.3,53.1c0.1,4.8,0.1,11.1,0.3,17.2
				c-14-5.4-37.9-14.4-48.7-33.3c-10.9-18.9-8.6-23.8-7.4-32.8c5.8,7.7,9.3,13.1,15.2,17.8c12.9,10.2,18.6,19.3,24.4,29
				C109.9,184.7,112.5,183.8,111.8,180.8z"/>
			<path d="M97.7,153.5c3.4-14.4,4.6-21.8,9.2-30.6c4.6-8.8,7.6-26.6,3-38.3c-9.4,14.3-16.3,27-16.2,47.6c-0.4,2.1-1.5,2.1-2.2,0.2
				s-8.6-24.5-16.3-32.7C69,93.2,63.1,84.6,62.6,81.9c-1,17.5-0.5,25.9,5.9,36.9s12,16.7,16,20.1C88.7,142.4,93.1,146.7,97.7,153.5z
				"/>
			<path d="M70.1,27.4c-11.8,38,1.6,54.3,5.9,59.7c4.2,5.3,8.2,10,12.7,19.8c1.1-5.2,11-22,15.6-28.6s12-21.8,12.1-30
				c-8.9,5.3-23.3,13.6-29.5,35.7c-3-6.4-2.9-9.2-3.4-15.2c-0.5-5.9-5.7-21.1-8.4-25.9C72.5,38.1,70.4,33.5,70.1,27.4z"/>
			<path d="M134,14c-4,11.1-17.5,21.3-24.3,25.3c-6.9,4-17.1,14-20.8,19.2c-2-6.2-17.9-41.9,14.8-76c0.1,11.3-1.7,31.7-8.9,49
				c-0.5,2.5-0.9,7.4,0.9,9.3C103.2,27.4,114.2,15.8,134,14z"/>
			<path d="M138.3-42.7c-17.7,9.4-29.4,28.9-29.9,58c6.2-4.1,12.8-6.5,20.1-8.3c7.3-1.8,25.5-8.4,32.8-23.2
				c-7.1,1.2-33,9.3-40.7,17.3c-0.5-7.3,3.4-17.3,6-20.4C129.2-22.4,138.2-36.9,138.3-42.7z"/>
			<path d="M174.2-43.8c-3,7.6-11.3,14.6-17.4,18.4c-6.1,3.8-20.7,9.8-25.4,11.7c4.4-7.3,11.1-16.1,17.6-20.5
				C155.4-38.7,164-41.1,174.2-43.8z"/>
			<g>
				<line x1="150.9" y1="220.2" x2="175.2" y2="238.1"/>
				<path d="M147.2,217.4c-1.5,2.1-1.1,5,1,6.5l24.3,17.9c2.1,1.5,5,1.1,6.5-1s1.1-5-1-6.5l-24.3-17.9
					C151.6,214.9,148.7,215.4,147.2,217.4z"/>
			</g>
		</g>
	</g>
</g>
</svg>
